<svg xmlns="http://www.w3.org/2000/svg" viewBox="0 0 512 512" width="512" height="512">
  <!-- Background rounded square -->
  <rect width="512" height="512" rx="100" ry="100" fill="#16a34a"/>

  <!-- Clock circle -->
  <circle cx="256" cy="256" r="155" fill="none" stroke="white" stroke-width="28"/>

  <!-- Clock hands -->
  <!-- Hour hand pointing to 12 -->
  <line x1="256" y1="256" x2="256" y2="140" stroke="white" stroke-width="22" stroke-linecap="round"/>
  <!-- Minute hand pointing to 3 -->
  <line x1="256" y1="256" x2="340" y2="256" stroke="white" stroke-width="16" stroke-linecap="round"/>

  <!-- Center dot -->
  <circle cx="256" cy="256" r="12" fill="white"/>

  <!-- Fork on the left side (overlapping clock) -->
  <g transform="translate(148, 110)">
    <!-- Fork handle -->
    <rect x="18" y="160" width="18" height="110" rx="9" fill="white"/>
    <!-- Fork neck -->
    <rect x="18" y="120" width="18" height="50" rx="4" fill="white"/>
    <!-- Fork tines base -->
    <rect x="6" y="60" width="42" height="70" rx="4" fill="white"/>
    <!-- Tine gaps -->
    <rect x="18" y="58" width="8" height="55" rx="3" fill="#16a34a"/>
    <rect x="32" y="58" width="8" height="55" rx="3" fill="#16a34a"/>
    <!-- Tines top -->
    <rect x="6" y="30" width="8" height="40" rx="4" fill="white"/>
    <rect x="18" y="20" width="8" height="50" rx="4" fill="white"/>
    <rect x="30" y="20" width="8" height="50" rx="4" fill="white"/>
    <rect x="42" y="30" width="8" height="40" rx="4" fill="white"/>
  </g>
</svg>
